<?xml version="1.0" standalone="no"?>
<!DOCTYPE svg PUBLIC "-//W3C//DTD SVG 20010904//EN"
 "http://www.w3.org/TR/2001/REC-SVG-20010904/DTD/svg10.dtd">
<svg version="1.0" xmlns="http://www.w3.org/2000/svg"
 width="700.000000pt" height="700.000000pt" viewBox="0 0 700.000000 700.000000"
 preserveAspectRatio="xMidYMid meet">
<metadata>
Created by potrace 1.11, written by Peter Selinger 2001-2013
</metadata>
<g transform="translate(0.000000,700.000000) scale(0.100000,-0.100000)"
fill="#000000" stroke="none">
<path d="M2601 5007 c-1 -227 -3 -542 -5 -702 -1 -159 1 -297 5 -305 4 -8 163
-94 353 -190 190 -96 346 -178 346 -181 0 -4 -652 -328 -698 -346 -10 -4 -12
68 -10 352 l3 357 -354 179 c-195 99 -355 178 -357 176 -5 -5 -16 -2137 -11
-2137 5 0 289 139 1070 524 197 97 359 176 360 176 2 0 2 -160 0 -355 -1 -195
-1 -355 2 -355 4 0 298 145 1145 563 168 83 307 151 310 152 32 8 688 341 682
346 -8 8 -134 73 -827 424 -247 125 -479 243 -514 262 -35 19 -69 33 -77 31
-22 -5 -704 -343 -704 -349 0 -6 111 -63 475 -246 l230 -116 -353 -173 c-195
-96 -357 -172 -361 -170 -3 2 -5 94 -4 203 1 109 2 426 3 706 1 279 4 507 6
507 6 0 470 -232 608 -304 48 -25 95 -46 103 -46 8 0 153 68 321 151 169 83
326 160 350 171 24 12 40 24 35 28 -4 4 -154 82 -333 173 -179 90 -491 249
-695 352 -203 103 -524 266 -712 361 -188 96 -352 178 -366 183 l-24 9 -2
-411z"/>
</g>
</svg>
